<?xml version="1.0" encoding="UTF-8"?>
<svg enable-background="new 0 0 1024 1024" version="1.1" viewBox="0 0 1024 1024" xml:space="preserve" xmlns="http://www.w3.org/2000/svg">
<path d="m532 712.33c-13.132 7.93e-4 -25.765 7.93e-4 -38.927 7.93e-4 -0.85748-19.793 1.8093-39.107 1.3067-59.324 4.5589-0.4079 9.4328-1.1558 14.316-1.2219 14.162-0.1919 28.329-0.039856 42.493-0.15064 29.669-0.23199 57.422-7.6434 82.177-24.09 34.579-22.973 56.921-54.956 65.026-95.754 6.7482-33.969 7.0946-68.329-2.79-101.83-15.858-53.742-50.231-89.632-105.2-103.91-21.938-5.7001-44.575-5.3132-67.048-4.5272-19.993 0.69925-39.98 0.39752-59.968 0.59879-13.994 0.14096-28.081-0.87088-41.966 0.39777-29.862 2.7285-48.524 19.682-49.956 49.07-2.8723 58.939-0.83182 117.95-1.1205 176.92-0.09784 19.996 0.18884 39.98 0.95483 59.964 0.79541 20.753 12.488 36.816 30.617 41.489 5.7164 1.4736 11.609 0.63763 17.411 1.0318 4.5749 0.31067 6.1811 1.9092 6.1058 6.6964-0.28485 18.123-0.11456 36.252 0.50113 54.381 0.010132 1.2307-1.2277 1.2775-2.357 1.1714-13.716-1.2891-27.63-1.2668-41.039-4.7556-40.327-10.493-63.08-37.494-71.825-77.388-1.4316-6.5312-1.883-13.162-1.947-19.843-0.21219-22.156-0.66949-44.31-0.72024-66.466-0.12476-54.477-0.20145-108.96-0.012909-163.43 0.051117-14.774 0.24387-29.561 4.6301-44.015 11.778-38.812 36.687-63.838 75.924-74.937 15.702-4.4417 31.685-4.1559 47.541-4.363 42.985-0.56171 85.984 0.034577 128.98-0.092834 52.479-0.15549 97.199 19.126 134.84 54.776 21.035 19.922 35.773 44.547 47.064 71.213 7.1802 16.958 11.724 34.651 14.633 52.739 1.499 9.3228 2.4695 18.831 2.5344 28.263 0.13397 19.471 0.93268 38.963-0.81793 58.423-1.7436 19.382-6.5984 37.948-13.916 55.931-6.3013 15.486-14.308 30.163-24.027 43.618-19.055 26.378-41.463 49.078-71.192 64.089-20.448 10.326-41.525 18.004-63.996 21.689-19.081 3.129-38.408 3.6799-58.233 3.6344z"/>
<path d="m450.87 636c-0.078614-19.665 0.12497-38.838-0.34238-57.994-0.27792-11.392 0.92078-22.678 2.5557-33.79 1.9243-13.08-1.8624-24.3-7.4916-35.442-2.028-4.014-4.2734-7.8794-6.8083-11.622-4.387-6.477-9.7728-8.8636-17.444-6.1457-7.8039 2.7649-15.121 1.2951-21.58-3.9321-6.6417-5.3751-9.6407-16.776-6.8151-25.59 2.6023-8.1179 11.6-15.445 20.304-15.422 8.7812 0.023468 16.56 2.4071 20.64 12.779 3.1397 7.9829 9.6865 11.209 16.08 15.351 1.5609-2.3711 1.5771-4.5735 1.5997-6.6779 0.17105-15.986-0.23556-31.986 1.1323-47.941 0.29868-3.4836-0.83743-5.6415-3.8807-7.7917-9.5438-6.7433-13.615-21.458-9.5027-32.313 3.4685-9.1566 15.726-17.071 25.84-16.684 11.983 0.45837 22.717 8.9471 25.675 20.305 2.3471 9.0129-1.0855 20.111-8.9377 25.256-5.9632 3.9073-7.5764 8.5085-7.167 15.414 1.3319 22.466 0.45993 44.982 0.59247 67.478 0.029297 4.9742 0.67648 9.8158 1.6067 14.669 2.8203-0.006409 3.5857-2.139 4.7857-3.5817 13.743-16.521 30.318-29.379 49.831-38.362 2.8162-1.2965 3.9073-2.9382 4.0912-5.9758 1.2642-20.879 11.411-32.746 31.732-36.737 9.3383-1.8341 17.673 1.2706 25.37 6.5523 15.021 10.307 18.64 31.115 7.9037 45.678-1.7681 2.3982-3.063 5.1631-4.9437 7.4576-12.047 14.696-30.306 13.762-43.392 6.2057-2.5878-1.4943-4.5793-1.6596-7.3751-0.57754-14.948 5.7855-28.026 14.504-39.514 25.484-3.9803 3.8043-6.6923 8.9354-9.664 14.137 5.2188-2.3109 10.453-1.3872 15.608-1.5236 5.4907-0.14532 10.428 1.5088 15.043 4.4644 4.0312-1.8923 7.0368-5.6678 11.678-6.4755 9.8135-1.7078 18.807 0.057251 25.461 7.8004 6.474 7.5334 7.6746 16.43 3.9156 25.72-1.2861 3.1783-0.94623 7.361-3.9848 9.4232-5.4615 3.7066-10.973 7.4773-18.081 7.6749-8.8956 0.24725-19.293-6.3608-23.509-15.231-1.4727-3.0986-1.649-6.4482-2.0518-9.7142-0.36877-2.9905-1.8207-4.0695-4.5822-4.0009-1.4992 0.037231-3.0271-0.13922-4.494 0.089416-6.1644 0.96076-12.194 1.4033-17.792-2.2951-1.0294-0.68018-2.5504-0.61646-3.8581-0.89899-7.548 8.1411-8.6282 18.306-9.8371 28.639-3.1478 26.905-1.5003 53.899-2.1614 80.848-0.47299 19.283-1.859 38.543-2.7275 57.818-0.1365 3.0303-1.2053 4.1201-4.2853 3.8186-3.6366-0.35584-7.3172-0.27167-10.979-0.35516-3.9706-0.090576-6.3024-1.8557-6.2397-6.0675 0.34457-23.17-2.5612-46.247-2.0013-69.923m116.65-167.69c9.5369 2.3224 16.391-4.4366 15.522-13.917-0.51819-5.6507-5.9843-11.054-11.924-11.67-3.8767-0.40222-11.521 4.7288-12.842 8.6206-1.9993 5.8864 1.2083 12.131 9.2446 16.967z"/>
</svg>
